<svg xmlns="http://www.w3.org/2000/svg" version="1.1" xmlns:xlink="http://www.w3.org/1999/xlink" width="512" height="512" x="0" y="0" viewBox="0 0 511.959 511.959" style="enable-background:new 0 0 512 512" xml:space="preserve" class=""><g><path xmlns="http://www.w3.org/2000/svg" d="m55.597 261.604c-5.429 3.419-3.959 2.493-43.556 42.089-16.055 16.055-16.055 42.178 0 58.232l38.322 38.322-18.59 18.589c-12.118 12.12-12.118 31.84.001 43.961l25.852 25.851c12.146 12.148 31.812 12.151 43.961 0l18.589-18.588 29.858 29.857c16.054 16.054 42.177 16.055 58.232 0 40.083-40.084 38.758-38.265 42.089-43.557z" fill="#ffb400"></path><path xmlns="http://www.w3.org/2000/svg" d="m499.918 150.033-38.322-38.322 18.59-18.589c12.118-12.12 12.118-31.84-.001-43.961l-25.852-25.851c-12.146-12.148-31.812-12.151-43.961 0l-18.589 18.588-29.858-29.857c-16.055-16.055-42.178-16.055-58.232 0-40.083 40.084-38.758 38.265-42.089 43.557l194.757 194.757c5.429-3.419 3.959-2.493 43.556-42.089 16.056-16.055 16.056-42.178.001-58.233z" fill="#ffb400"></path><path xmlns="http://www.w3.org/2000/svg" d="m142.724 211.442h227.339v89.903h-227.339z" transform="matrix(.707 -.707 .707 .707 -106.202 256.393)" fill="#ffb400"></path></g></svg>